<svg xmlns="http://www.w3.org/2000/svg" viewBox="0 0 1200 720" role="img" aria-labelledby="title desc">
  <title id="title">TRH Enterprise Bot</title>
  <desc id="desc">Enterprise tier bot package cover image</desc>
  <defs>
    <linearGradient id="bg" x1="0" x2="1" y1="0" y2="1">
      <stop offset="0%" stop-color="#1c1230"/>
      <stop offset="100%" stop-color="#2e2350"/>
    </linearGradient>
    <linearGradient id="beam" x1="0" x2="1" y1="0" y2="0">
      <stop offset="0%" stop-color="#c5a7ff"/>
      <stop offset="100%" stop-color="#e4d7ff"/>
    </linearGradient>
  </defs>
  <rect width="1200" height="720" fill="url(#bg)"/>
  <circle cx="980" cy="90" r="200" fill="#b389ff" opacity="0.2"/>
  <circle cx="180" cy="610" r="230" fill="#7d6ad1" opacity="0.2"/>
  <rect x="100" y="104" width="1000" height="512" rx="36" fill="#23183a" opacity="0.9" stroke="#bb9cff" stroke-opacity="0.38"/>
  <g transform="translate(160,170)">
    <rect width="360" height="360" rx="24" fill="#291c44" stroke="#cfb6ff" stroke-opacity="0.36"/>
    <path d="M70 94h220v50H70zM70 166h220v50H70zM70 238h220v50H70z" fill="#ad88ff" opacity="0.35"/>
    <path d="M110 326 L182 80 L252 326" fill="none" stroke="url(#beam)" stroke-width="18" stroke-linecap="round"/>
  </g>
  <g transform="translate(586,196)">
    <rect width="450" height="270" rx="24" fill="#2a1d46" stroke="#c6a9ff" stroke-opacity="0.34"/>
    <rect x="40" y="52" width="340" height="20" rx="10" fill="#d8c5ff" opacity="0.88"/>
    <rect x="40" y="96" width="260" height="14" rx="7" fill="#bfa1ff" opacity="0.7"/>
    <rect x="40" y="124" width="286" height="14" rx="7" fill="#bfa1ff" opacity="0.55"/>
    <rect x="40" y="152" width="220" height="14" rx="7" fill="#bfa1ff" opacity="0.42"/>
    <circle cx="390" cy="182" r="42" fill="#d7c4ff" opacity="0.26"/>
  </g>
  <text x="160" y="566" fill="#eadfff" font-family="Space Grotesk, Arial, sans-serif" font-size="58" font-weight="700">TRH ENTERPRISE BOT</text>
  <text x="160" y="618" fill="#cdb4ff" font-family="IBM Plex Mono, monospace" font-size="28" letter-spacing="3">ATOMIC ECONOMY • WEBHOOKS • SCALE</text>
</svg>
