<svg xmlns="http://www.w3.org/2000/svg" viewBox="0 0 1200 720" role="img" aria-labelledby="title desc">
  <title id="title">TRH Growth Bot</title>
  <desc id="desc">Growth tier bot package cover image</desc>
  <defs>
    <linearGradient id="bg" x1="0" x2="1" y1="0" y2="1">
      <stop offset="0%" stop-color="#222810"/>
      <stop offset="100%" stop-color="#4a3f17"/>
    </linearGradient>
    <linearGradient id="line" x1="0" x2="1" y1="0" y2="0">
      <stop offset="0%" stop-color="#ffc564"/>
      <stop offset="100%" stop-color="#ffe4a6"/>
    </linearGradient>
  </defs>
  <rect width="1200" height="720" fill="url(#bg)"/>
  <circle cx="1030" cy="120" r="170" fill="#ffcf73" opacity="0.2"/>
  <path d="M0 580 C240 470, 420 670, 720 560 C880 500, 1010 520, 1200 450 L1200 720 L0 720Z" fill="#6b5a22" opacity="0.45"/>
  <rect x="112" y="112" width="976" height="496" rx="34" fill="#2a2512" opacity="0.86" stroke="#ffcf77" stroke-opacity="0.35"/>
  <g transform="translate(170,180)">
    <rect x="0" y="0" width="470" height="250" rx="20" fill="#322b14" stroke="#ffd282" stroke-opacity="0.35"/>
    <path d="M40 184 L140 116 L238 150 L332 88 L430 132" fill="none" stroke="url(#line)" stroke-width="18" stroke-linecap="round" stroke-linejoin="round"/>
    <circle cx="140" cy="116" r="12" fill="#ffe6b6"/>
    <circle cx="238" cy="150" r="12" fill="#ffe6b6"/>
    <circle cx="332" cy="88" r="12" fill="#ffe6b6"/>
  </g>
  <g transform="translate(730,176)">
    <rect width="300" height="270" rx="26" fill="#332a12" stroke="#ffd083" stroke-opacity="0.4"/>
    <rect x="52" y="60" width="196" height="26" rx="13" fill="#ffd48f" opacity="0.9"/>
    <rect x="52" y="106" width="150" height="18" rx="9" fill="#f2c772" opacity="0.7"/>
    <rect x="52" y="138" width="178" height="18" rx="9" fill="#f2c772" opacity="0.58"/>
    <rect x="52" y="170" width="126" height="18" rx="9" fill="#f2c772" opacity="0.46"/>
  </g>
  <text x="170" y="492" fill="#ffe8bf" font-family="Space Grotesk, Arial, sans-serif" font-size="58" font-weight="700">TRH GROWTH BOT</text>
  <text x="170" y="544" fill="#f6cf87" font-family="IBM Plex Mono, monospace" font-size="28" letter-spacing="3">EVENTS • LEADERBOARDS • ANALYTICS</text>
</svg>
