<svg xmlns="http://www.w3.org/2000/svg" viewBox="0 0 1200 720" role="img" aria-labelledby="title desc">
  <title id="title">TRH Local Machine Bots</title>
  <desc id="desc">Local machine inventory bot cover image</desc>
  <defs>
    <linearGradient id="bg" x1="0" x2="1" y1="0" y2="1">
      <stop offset="0%" stop-color="#0f2a20"/>
      <stop offset="100%" stop-color="#174235"/>
    </linearGradient>
  </defs>
  <rect width="1200" height="720" fill="url(#bg)"/>
  <circle cx="980" cy="130" r="180" fill="#77f0c0" opacity="0.18"/>
  <rect x="110" y="110" width="980" height="500" rx="34" fill="#153428" opacity="0.86" stroke="#80f7c8" stroke-opacity="0.35"/>
  <rect x="170" y="170" width="860" height="350" rx="22" fill="#102a21" stroke="#7ff7c6" stroke-opacity="0.3"/>
  <g fill="#88ffd0" opacity="0.8">
    <rect x="220" y="220" width="220" height="20" rx="10"/>
    <rect x="220" y="258" width="180" height="14" rx="7" opacity="0.75"/>
    <rect x="220" y="286" width="250" height="14" rx="7" opacity="0.58"/>
    <rect x="220" y="314" width="210" height="14" rx="7" opacity="0.42"/>
  </g>
  <g transform="translate(650,214)">
    <rect width="320" height="240" rx="20" fill="#194033" stroke="#88ffd0" stroke-opacity="0.42"/>
    <circle cx="88" cy="120" r="38" fill="#88ffd0" opacity="0.84"/>
    <rect x="150" y="90" width="120" height="16" rx="8" fill="#88ffd0" opacity="0.72"/>
    <rect x="150" y="118" width="90" height="14" rx="7" fill="#88ffd0" opacity="0.52"/>
    <rect x="150" y="144" width="110" height="14" rx="7" fill="#88ffd0" opacity="0.38"/>
  </g>
  <text x="170" y="566" fill="#c8ffe8" font-family="Space Grotesk, Arial, sans-serif" font-size="56" font-weight="700">LOCAL MACHINE INVENTORY</text>
  <text x="170" y="616" fill="#99f6d2" font-family="IBM Plex Mono, monospace" font-size="28" letter-spacing="3">ACTIVE + INACTIVE DISCOVERY</text>
</svg>
