<svg xmlns="http://www.w3.org/2000/svg" viewBox="0 0 1200 720" role="img" aria-labelledby="title desc">
  <title id="title">TRH Starter Bot</title>
  <desc id="desc">Starter tier bot package cover image</desc>
  <defs>
    <linearGradient id="bg" x1="0" x2="1" y1="0" y2="1">
      <stop offset="0%" stop-color="#0f2a3e"/>
      <stop offset="100%" stop-color="#184a69"/>
    </linearGradient>
    <linearGradient id="bar" x1="0" x2="1" y1="0" y2="0">
      <stop offset="0%" stop-color="#62d0ff"/>
      <stop offset="100%" stop-color="#b2ecff"/>
    </linearGradient>
  </defs>
  <rect width="1200" height="720" fill="url(#bg)"/>
  <circle cx="1000" cy="140" r="180" fill="#58c8ff" opacity="0.2"/>
  <circle cx="220" cy="600" r="220" fill="#77d7ff" opacity="0.14"/>
  <rect x="120" y="120" width="960" height="480" rx="34" fill="#0e2435" opacity="0.82" stroke="#5ccfff" stroke-opacity="0.4"/>
  <rect x="180" y="180" width="420" height="24" rx="12" fill="url(#bar)" opacity="0.95"/>
  <rect x="180" y="232" width="320" height="16" rx="8" fill="#8cdfff" opacity="0.6"/>
  <rect x="180" y="262" width="278" height="16" rx="8" fill="#8cdfff" opacity="0.45"/>
  <g transform="translate(730,190)">
    <rect width="300" height="300" rx="26" fill="#102f46" stroke="#73d8ff" stroke-opacity="0.46"/>
    <path d="M68 180c0-45 36-81 81-81h2c45 0 81 36 81 81v58H68z" fill="#7ee0ff" opacity="0.85"/>
    <circle cx="150" cy="160" r="34" fill="#0d2233"/>
    <rect x="124" y="242" width="52" height="12" rx="6" fill="#0d2233"/>
  </g>
  <text x="180" y="420" fill="#bdeeff" font-family="Space Grotesk, Arial, sans-serif" font-size="58" font-weight="700">TRH STARTER BOT</text>
  <text x="180" y="472" fill="#86d6f8" font-family="IBM Plex Mono, monospace" font-size="28" letter-spacing="3">FAST START • MODERATION • TICKETS</text>
</svg>
