<svg xmlns="http://www.w3.org/2000/svg" viewBox="0 0 800 480">
  <defs>
    <linearGradient id="bg" x1="0" y1="0" x2="1" y2="1"><stop offset="0%" stop-color="#081428"/><stop offset="100%" stop-color="#102240"/></linearGradient>
    <linearGradient id="acc" x1="0" y1="0" x2="1" y2="0"><stop offset="0%" stop-color="#3aff80"/><stop offset="100%" stop-color="#80ffb0"/></linearGradient>
    <filter id="glow"><feGaussianBlur stdDeviation="7" result="b"/><feMerge><feMergeNode in="b"/><feMergeNode in="SourceGraphic"/></feMerge></filter>
  </defs>
  <rect width="800" height="480" fill="url(#bg)"/>
  <circle cx="660" cy="80" r="160" fill="#3aff80" opacity="0.06"/>
  <!-- Blueprint grid -->
  <rect x="560" y="120" width="200" height="240" rx="10" fill="#091e36" stroke="#3aff80" stroke-width="1.5" filter="url(#glow)"/>
  <line x1="560" y1="160" x2="760" y2="160" stroke="#3aff80" stroke-width="0.8" opacity="0.3"/>
  <line x1="560" y1="200" x2="760" y2="200" stroke="#3aff80" stroke-width="0.8" opacity="0.3"/>
  <line x1="560" y1="240" x2="760" y2="240" stroke="#3aff80" stroke-width="0.8" opacity="0.3"/>
  <line x1="560" y1="280" x2="760" y2="280" stroke="#3aff80" stroke-width="0.8" opacity="0.3"/>
  <line x1="600" y1="120" x2="600" y2="360" stroke="#3aff80" stroke-width="0.8" opacity="0.3"/>
  <line x1="640" y1="120" x2="640" y2="360" stroke="#3aff80" stroke-width="0.8" opacity="0.3"/>
  <line x1="680" y1="120" x2="680" y2="360" stroke="#3aff80" stroke-width="0.8" opacity="0.3"/>
  <line x1="720" y1="120" x2="720" y2="360" stroke="#3aff80" stroke-width="0.8" opacity="0.3"/>
  <!-- Plan marks -->
  <rect x="580" y="145" width="80" height="30" rx="5" fill="#3aff80" opacity="0.15" stroke="#3aff80" stroke-width="1"/>
  <rect x="580" y="185" width="120" height="20" rx="4" fill="#3aff80" opacity="0.1"/>
  <rect x="580" y="220" width="100" height="20" rx="4" fill="#3aff80" opacity="0.1"/>
  <circle cx="595" cy="260" r="8" fill="none" stroke="#3aff80" stroke-width="2"/>
  <circle cx="595" cy="290" r="8" fill="none" stroke="#3aff80" stroke-width="2"/>
  <line x1="611" y1="260" x2="700" y2="260" stroke="#3aff80" stroke-width="1.5" opacity="0.5"/>
  <line x1="611" y1="290" x2="700" y2="290" stroke="#3aff80" stroke-width="1.5" opacity="0.5"/>
  <circle cx="595" cy="260" r="5" fill="#3aff80" opacity="0.8"/>
  <text x="70" y="195" fill="#b0e8c8" font-family="Space Grotesk, Arial" font-size="46" font-weight="800">BUILD</text>
  <text x="70" y="265" fill="url(#acc)" font-family="Space Grotesk, Arial" font-size="64" font-weight="800">PLAN</text>
  <rect x="70" y="286" width="130" height="4" rx="2" fill="url(#acc)" opacity="0.6"/>
  <text x="70" y="328" fill="#40c878" font-family="IBM Plex Mono, monospace" font-size="19" letter-spacing="3">PROJECT SCOPE</text>
  <text x="70" y="363" fill="#1a7848" font-family="IBM Plex Mono, monospace" font-size="14" letter-spacing="2">TRH DEVELOPMENT</text>
</svg>
