<svg xmlns="http://www.w3.org/2000/svg" viewBox="0 0 800 480">
  <defs>
    <linearGradient id="bg" x1="0" y1="0" x2="1" y2="1"><stop offset="0%" stop-color="#080e28"/><stop offset="100%" stop-color="#131d4a"/></linearGradient>
    <linearGradient id="acc" x1="0" y1="0" x2="1" y2="0"><stop offset="0%" stop-color="#5865f2"/><stop offset="100%" stop-color="#99aaff"/></linearGradient>
    <filter id="glow"><feGaussianBlur stdDeviation="7" result="b"/><feMerge><feMergeNode in="b"/><feMergeNode in="SourceGraphic"/></feMerge></filter>
  </defs>
  <rect width="800" height="480" fill="url(#bg)"/>
  <circle cx="660" cy="80" r="160" fill="#5865f2" opacity="0.08"/>
  <!-- Discord blob with gear -->
  <path d="M585,185 C585,160 605,140 635,140 L695,140 C725,140 745,160 745,185 L745,260 C745,285 725,305 695,305 L665,305 L645,330 L625,305 L635,305 C605,305 585,285 585,260 Z" fill="#1a2060" stroke="#5865f2" stroke-width="2" filter="url(#glow)"/>
  <circle cx="630" cy="220" r="14" fill="url(#acc)" opacity="0.9"/>
  <circle cx="700" cy="220" r="14" fill="url(#acc)" opacity="0.9"/>
  <!-- gear icon at corner -->
  <circle cx="740" cy="145" r="20" fill="#1a2060" stroke="#5865f2" stroke-width="1.5"/>
  <circle cx="740" cy="145" r="10" fill="none" stroke="#99aaff" stroke-width="2"/>
  <circle cx="740" cy="145" r="4" fill="url(#acc)"/>
  <text x="70" y="195" fill="#c8d0ff" font-family="Space Grotesk, Arial" font-size="46" font-weight="800">DISCORD</text>
  <text x="70" y="265" fill="url(#acc)" font-family="Space Grotesk, Arial" font-size="64" font-weight="800">SETUP</text>
  <rect x="70" y="286" width="165" height="4" rx="2" fill="url(#acc)" opacity="0.6"/>
  <text x="70" y="328" fill="#8890d8" font-family="IBM Plex Mono, monospace" font-size="19" letter-spacing="3">FULL BUILDOUT</text>
  <text x="70" y="363" fill="#4a5090" font-family="IBM Plex Mono, monospace" font-size="14" letter-spacing="2">TRH DEVELOPMENT</text>
</svg>
