<svg xmlns="http://www.w3.org/2000/svg" viewBox="0 0 800 480">
  <defs>
    <linearGradient id="bg" x1="0" y1="0" x2="1" y2="1"><stop offset="0%" stop-color="#0a1030"/><stop offset="100%" stop-color="#141e50"/></linearGradient>
    <linearGradient id="acc" x1="0" y1="0" x2="1" y2="0"><stop offset="0%" stop-color="#7080f8"/><stop offset="100%" stop-color="#a8b8ff"/></linearGradient>
    <filter id="glow"><feGaussianBlur stdDeviation="7" result="b"/><feMerge><feMergeNode in="b"/><feMergeNode in="SourceGraphic"/></feMerge></filter>
  </defs>
  <rect width="800" height="480" fill="url(#bg)"/>
  <circle cx="660" cy="80" r="155" fill="#7080f8" opacity="0.08"/>
  <!-- Document template icon -->
  <rect x="575" y="130" width="180" height="230" rx="14" fill="#0e1840" stroke="#7080f8" stroke-width="2" filter="url(#glow)"/>
  <rect x="595" y="158" width="140" height="12" rx="6" fill="url(#acc)" opacity="0.9"/>
  <rect x="595" y="184" width="110" height="9" rx="4" fill="#7080f8" opacity="0.45"/>
  <rect x="595" y="207" width="130" height="9" rx="4" fill="#7080f8" opacity="0.38"/>
  <rect x="595" y="230" width="90" height="9" rx="4" fill="#7080f8" opacity="0.3"/>
  <rect x="595" y="260" width="140" height="12" rx="6" fill="#7080f8" opacity="0.55"/>
  <rect x="595" y="285" width="115" height="9" rx="4" fill="#7080f8" opacity="0.35"/>
  <rect x="595" y="308" width="100" height="9" rx="4" fill="#7080f8" opacity="0.28"/>
  <text x="70" y="195" fill="#b8c8ff" font-family="Space Grotesk, Arial" font-size="46" font-weight="800">DISCORD</text>
  <text x="70" y="265" fill="url(#acc)" font-family="Space Grotesk, Arial" font-size="56" font-weight="800">TEMPLATE</text>
  <rect x="70" y="284" width="210" height="4" rx="2" fill="url(#acc)" opacity="0.6"/>
  <text x="70" y="326" fill="#6070c8" font-family="IBM Plex Mono, monospace" font-size="19" letter-spacing="3">READY-TO-DEPLOY</text>
  <text x="70" y="361" fill="#3040a0" font-family="IBM Plex Mono, monospace" font-size="14" letter-spacing="2">TRH DEVELOPMENT</text>
</svg>
