<svg xmlns="http://www.w3.org/2000/svg" viewBox="0 0 800 480">
  <defs>
    <linearGradient id="bg" x1="0" y1="0" x2="1" y2="1"><stop offset="0%" stop-color="#041828"/><stop offset="100%" stop-color="#082838"/></linearGradient>
    <linearGradient id="acc" x1="0" y1="0" x2="1" y2="0"><stop offset="0%" stop-color="#00c8ff"/><stop offset="100%" stop-color="#80e8ff"/></linearGradient>
    <filter id="glow"><feGaussianBlur stdDeviation="7" result="b"/><feMerge><feMergeNode in="b"/><feMergeNode in="SourceGraphic"/></feMerge></filter>
  </defs>
  <rect width="800" height="480" fill="url(#bg)"/>
  <circle cx="660" cy="80" r="155" fill="#00c8ff" opacity="0.07"/>
  <!-- Recurring arrows / subscription -->
  <path d="M600,195 C600,165 625,145 660,145 C695,145 720,165 720,195" fill="none" stroke="#00c8ff" stroke-width="5" stroke-linecap="round" filter="url(#glow)"/>
  <polygon points="720,185 730,205 710,207" fill="url(#acc)"/>
  <path d="M720,280 C720,310 695,330 660,330 C625,330 600,310 600,280" fill="none" stroke="#00c8ff" stroke-width="5" stroke-linecap="round" filter="url(#glow)"/>
  <polygon points="600,290 590,270 610,268" fill="url(#acc)"/>
  <rect x="625" y="195" width="70" height="85" rx="8" fill="#082838" stroke="#00c8ff" stroke-width="1.5"/>
  <text x="648" y="249" fill="url(#acc)" font-family="Space Grotesk, Arial" font-size="28" font-weight="800">8</text>
  <text x="70" y="195" fill="#a0e0f8" font-family="Space Grotesk, Arial" font-size="46" font-weight="800">RECURRING</text>
  <text x="70" y="265" fill="url(#acc)" font-family="Space Grotesk, Arial" font-size="56" font-weight="800">SUB</text>
  <rect x="70" y="284" width="130" height="4" rx="2" fill="url(#acc)" opacity="0.6"/>
  <text x="70" y="326" fill="#20a0c8" font-family="IBM Plex Mono, monospace" font-size="19" letter-spacing="3">MONTHLY PLANS</text>
  <text x="70" y="361" fill="#0a6888" font-family="IBM Plex Mono, monospace" font-size="14" letter-spacing="2">TRH DEVELOPMENT</text>
</svg>
