<svg xmlns="http://www.w3.org/2000/svg" viewBox="0 0 512 512" role="img" aria-label="TRH Bot Controls">
  <defs>
    <linearGradient id="bg" x1="0" y1="0" x2="1" y2="1">
      <stop offset="0%" stop-color="#05070b" />
      <stop offset="100%" stop-color="#091426" />
    </linearGradient>
    <linearGradient id="neon" x1="0" y1="0" x2="1" y2="1">
      <stop offset="0%" stop-color="#73f7ff" />
      <stop offset="100%" stop-color="#1d8dff" />
    </linearGradient>
    <filter id="glow" x="-60%" y="-60%" width="220%" height="220%">
      <feGaussianBlur stdDeviation="8" result="b" />
      <feMerge>
        <feMergeNode in="b" />
        <feMergeNode in="SourceGraphic" />
      </feMerge>
    </filter>
  </defs>

  <rect width="512" height="512" rx="64" fill="url(#bg)" />

  <g stroke="#6f47ff" stroke-width="4" fill="none" opacity="0.5">
    <path d="M24 110 H178" />
    <circle cx="24" cy="110" r="6" />
    <path d="M420 54 V142" />
    <path d="M442 54 V142" />
    <path d="M464 54 V142" />
    <path d="M334 430 H490" />
  </g>

  <g filter="url(#glow)" fill="none" stroke="url(#neon)" stroke-width="18" stroke-linejoin="round" stroke-linecap="round">
    <path d="M88 162 H248" />
    <path d="M168 162 V334" />

    <path d="M220 162 H302 Q354 162 354 214 Q354 266 302 266 H220" />
    <path d="M220 266 H302 Q354 266 354 318 V334" />

    <path d="M388 162 V334" />
    <path d="M388 250 H470" />
    <path d="M470 162 V334" />
  </g>

  <g fill="url(#neon)" font-family="'Space Grotesk', 'Segoe UI', sans-serif" font-size="44" font-weight="700" filter="url(#glow)">
    <text x="102" y="412">Bot Controls</text>
  </g>
</svg>
