<svg xmlns="http://www.w3.org/2000/svg" viewBox="0 0 800 480">
  <defs>
    <linearGradient id="bg" x1="0" y1="0" x2="1" y2="1"><stop offset="0%" stop-color="#081428"/><stop offset="100%" stop-color="#102240"/></linearGradient>
    <linearGradient id="acc" x1="0" y1="0" x2="1" y2="0"><stop offset="0%" stop-color="#3aff80"/><stop offset="100%" stop-color="#80ffb0"/></linearGradient>
    <filter id="glow"><feGaussianBlur stdDeviation="7" result="b"/><feMerge><feMergeNode in="b"/><feMergeNode in="SourceGraphic"/></feMerge></filter>
  </defs>
  <rect width="800" height="480" fill="url(#bg)"/>
  <circle cx="660" cy="80" r="160" fill="#3aff80" opacity="0.06"/>
  <rect x="555" y="120" width="210" height="245" rx="12" fill="#091e36" stroke="#3aff80" stroke-width="1.5" filter="url(#glow)"/>
  <line x1="555" y1="158" x2="765" y2="158" stroke="#3aff80" stroke-width="0.8" opacity="0.3"/>
  <line x1="555" y1="196" x2="765" y2="196" stroke="#3aff80" stroke-width="0.8" opacity="0.3"/>
  <line x1="555" y1="234" x2="765" y2="234" stroke="#3aff80" stroke-width="0.8" opacity="0.3"/>
  <line x1="555" y1="272" x2="765" y2="272" stroke="#3aff80" stroke-width="0.8" opacity="0.3"/>
  <line x1="595" y1="120" x2="595" y2="365" stroke="#3aff80" stroke-width="0.8" opacity="0.3"/>
  <line x1="635" y1="120" x2="635" y2="365" stroke="#3aff80" stroke-width="0.8" opacity="0.3"/>
  <line x1="675" y1="120" x2="675" y2="365" stroke="#3aff80" stroke-width="0.8" opacity="0.3"/>
  <line x1="715" y1="120" x2="715" y2="365" stroke="#3aff80" stroke-width="0.8" opacity="0.3"/>
  <rect x="572" y="138" width="90" height="32" rx="5" fill="#3aff80" opacity="0.14" stroke="#3aff80" stroke-width="1"/>
  <rect x="572" y="182" width="130" height="22" rx="4" fill="#3aff80" opacity="0.1"/>
  <rect x="572" y="218" width="110" height="22" rx="4" fill="#3aff80" opacity="0.1"/>
  <circle cx="588" cy="258" r="8" fill="none" stroke="#3aff80" stroke-width="2"/>
  <circle cx="588" cy="288" r="8" fill="none" stroke="#3aff80" stroke-width="2"/>
  <line x1="604" y1="258" x2="730" y2="258" stroke="#3aff80" stroke-width="1.5" opacity="0.5"/>
  <line x1="604" y1="288" x2="730" y2="288" stroke="#3aff80" stroke-width="1.5" opacity="0.5"/>
  <circle cx="588" cy="258" r="5" fill="#3aff80" opacity="0.9"/>
  <text x="70" y="185" fill="#b0e8c8" font-family="Space Grotesk, Arial" font-size="46" font-weight="800">GROWTH</text>
  <text x="70" y="258" fill="url(#acc)" font-family="Space Grotesk, Arial" font-size="64" font-weight="800">BUILD PLAN</text>
  <rect x="70" y="279" width="290" height="4" rx="2" fill="url(#acc)" opacity="0.6"/>
  <text x="70" y="321" fill="#40c878" font-family="IBM Plex Mono, monospace" font-size="19" letter-spacing="3">STRUCTURED SCOPE</text>
  <text x="70" y="356" fill="#1a7848" font-family="IBM Plex Mono, monospace" font-size="14" letter-spacing="2">TRH CATALOG</text>
</svg>
