<svg xmlns="http://www.w3.org/2000/svg" viewBox="0 0 800 480">
  <defs>
    <linearGradient id="bg" x1="0" y1="0" x2="1" y2="1"><stop offset="0%" stop-color="#0a1030"/><stop offset="100%" stop-color="#141e50"/></linearGradient>
    <linearGradient id="acc" x1="0" y1="0" x2="1" y2="0"><stop offset="0%" stop-color="#7080f8"/><stop offset="100%" stop-color="#a8b8ff"/></linearGradient>
    <filter id="glow"><feGaussianBlur stdDeviation="7" result="b"/><feMerge><feMergeNode in="b"/><feMergeNode in="SourceGraphic"/></feMerge></filter>
  </defs>
  <rect width="800" height="480" fill="url(#bg)"/>
  <circle cx="660" cy="80" r="155" fill="#7080f8" opacity="0.08"/>
  <rect x="560" y="125" width="195" height="240" rx="15" fill="#0e1840" stroke="#7080f8" stroke-width="2" filter="url(#glow)"/>
  <rect x="580" y="152" width="155" height="13" rx="6" fill="url(#acc)" opacity="0.9"/>
  <rect x="580" y="178" width="122" height="9" rx="4" fill="#7080f8" opacity="0.45"/>
  <rect x="580" y="200" width="142" height="9" rx="4" fill="#7080f8" opacity="0.38"/>
  <rect x="580" y="222" width="98" height="9" rx="4" fill="#7080f8" opacity="0.3"/>
  <rect x="580" y="252" width="155" height="13" rx="6" fill="#7080f8" opacity="0.55"/>
  <rect x="580" y="278" width="125" height="9" rx="4" fill="#7080f8" opacity="0.35"/>
  <rect x="580" y="300" width="110" height="9" rx="4" fill="#7080f8" opacity="0.28"/>
  <text x="70" y="195" fill="#b8c8ff" font-family="Space Grotesk, Arial" font-size="46" font-weight="800">DISCORD</text>
  <text x="70" y="262" fill="url(#acc)" font-family="Space Grotesk, Arial" font-size="56" font-weight="800">TEMPLATE</text>
  <rect x="70" y="280" width="235" height="4" rx="2" fill="url(#acc)" opacity="0.6"/>
  <text x="70" y="322" fill="#6070c8" font-family="IBM Plex Mono, monospace" font-size="19" letter-spacing="3">READY-TO-DEPLOY</text>
  <text x="70" y="357" fill="#3040a0" font-family="IBM Plex Mono, monospace" font-size="14" letter-spacing="2">TRH CATALOG</text>
</svg>
