<svg xmlns="http://www.w3.org/2000/svg" viewBox="0 0 800 480">
  <defs>
    <linearGradient id="bg" x1="0" y1="0" x2="1" y2="1"><stop offset="0%" stop-color="#041a10"/><stop offset="100%" stop-color="#0a2a1a"/></linearGradient>
    <linearGradient id="acc" x1="0" y1="0" x2="1" y2="0"><stop offset="0%" stop-color="#00c878"/><stop offset="100%" stop-color="#80ffbc"/></linearGradient>
    <filter id="glow"><feGaussianBlur stdDeviation="7" result="b"/><feMerge><feMergeNode in="b"/><feMergeNode in="SourceGraphic"/></feMerge></filter>
  </defs>
  <rect width="800" height="480" fill="url(#bg)"/>
  <circle cx="660" cy="80" r="155" fill="#00c878" opacity="0.07"/>
  <rect x="575" y="130" width="180" height="220" rx="14" fill="#062018" stroke="#00c878" stroke-width="2" filter="url(#glow)"/>
  <rect x="595" y="162" width="140" height="10" rx="5" fill="url(#acc)" opacity="0.8"/>
  <rect x="595" y="188" width="110" height="8" rx="4" fill="#00c878" opacity="0.45"/>
  <rect x="595" y="210" width="130" height="8" rx="4" fill="#00c878" opacity="0.38"/>
  <rect x="595" y="232" width="95" height="8" rx="4" fill="#00c878" opacity="0.3"/>
  <rect x="595" y="268" width="140" height="10" rx="5" fill="#00c878" opacity="0.55"/>
  <rect x="595" y="290" width="115" height="8" rx="4" fill="#00c878" opacity="0.35"/>
  <rect x="595" y="312" width="105" height="8" rx="4" fill="#00c878" opacity="0.28"/>
  <rect x="573" y="136" width="60" height="22" rx="6" fill="url(#acc)" opacity="0.9"/>
  <text x="579" y="152" fill="#041a10" font-family="IBM Plex Mono, monospace" font-size="12" font-weight="700">STD</text>
  <text x="70" y="195" fill="#a0ffe0" font-family="Space Grotesk, Arial" font-size="46" font-weight="800">TEMPLATE</text>
  <text x="70" y="265" fill="url(#acc)" font-family="Space Grotesk, Arial" font-size="56" font-weight="800">STANDARD</text>
  <rect x="70" y="284" width="190" height="4" rx="2" fill="url(#acc)" opacity="0.6"/>
  <text x="70" y="326" fill="#40b880" font-family="IBM Plex Mono, monospace" font-size="19" letter-spacing="3">FULL STRUCTURE</text>
  <text x="70" y="361" fill="#1a7050" font-family="IBM Plex Mono, monospace" font-size="14" letter-spacing="2">DISCORD TEMPLATE</text>
</svg>
