<svg xmlns="http://www.w3.org/2000/svg" viewBox="0 0 800 480">
  <defs>
    <linearGradient id="bg" x1="0" y1="0" x2="1" y2="1"><stop offset="0%" stop-color="#120c00"/><stop offset="100%" stop-color="#2a1e00"/></linearGradient>
    <linearGradient id="acc" x1="0" y1="0" x2="1" y2="0"><stop offset="0%" stop-color="#ffb300"/><stop offset="100%" stop-color="#ffe066"/></linearGradient>
    <filter id="glow"><feGaussianBlur stdDeviation="9" result="b"/><feMerge><feMergeNode in="b"/><feMergeNode in="SourceGraphic"/></feMerge></filter>
  </defs>
  <rect width="800" height="480" fill="url(#bg)"/>
  <circle cx="660" cy="80" r="180" fill="#ffb300" opacity="0.06"/>
  <path d="M580,190 C580,165 600,145 630,145 L690,145 C720,145 740,165 740,190 L740,260 C740,285 720,305 690,305 L660,305 L640,330 L620,305 L630,305 C600,305 580,285 580,260 Z" fill="#281400" stroke="#ffb300" stroke-width="2.5" filter="url(#glow)"/>
  <circle cx="625" cy="222" r="14" fill="url(#acc)" opacity="0.9"/>
  <circle cx="695" cy="222" r="14" fill="url(#acc)" opacity="0.9"/>
  <text x="70" y="195" fill="#ffe8a0" font-family="Space Grotesk, Arial" font-size="46" font-weight="800">DISCORD</text>
  <text x="70" y="255" fill="url(#acc)" font-family="Space Grotesk, Arial" font-size="64" font-weight="800">SETUP</text>
  <rect x="70" y="275" width="155" height="4" rx="2" fill="url(#acc)" opacity="0.7"/>
  <text x="70" y="318" fill="#c8a040" font-family="IBM Plex Mono, monospace" font-size="19" letter-spacing="3">ELITE TIER</text>
  <text x="70" y="354" fill="#806020" font-family="IBM Plex Mono, monospace" font-size="14" letter-spacing="2">ENTERPRISE SCALE</text>
</svg>
