<svg xmlns="http://www.w3.org/2000/svg" viewBox="0 0 800 480">
  <defs>
    <linearGradient id="bg" x1="0" y1="0" x2="1" y2="1"><stop offset="0%" stop-color="#071828"/><stop offset="100%" stop-color="#0f3352"/></linearGradient>
    <linearGradient id="acc" x1="0" y1="0" x2="1" y2="0"><stop offset="0%" stop-color="#5ccfff"/><stop offset="100%" stop-color="#b2ecff"/></linearGradient>
    <filter id="glow"><feGaussianBlur stdDeviation="7" result="b"/><feMerge><feMergeNode in="b"/><feMergeNode in="SourceGraphic"/></feMerge></filter>
  </defs>
  <rect width="800" height="480" fill="url(#bg)"/>
  <circle cx="650" cy="80" r="160" fill="#5ccfff" opacity="0.06"/>
  <polygon points="570,130 640,100 710,130 730,210 710,290 640,320 570,290 550,210" fill="#0d2a3e" stroke="#5ccfff" stroke-width="2" filter="url(#glow)"/>
  <polygon points="580,138 640,112 700,138 718,210 700,282 640,308 580,282 562,210" fill="none" stroke="#8de4ff" stroke-width="1" opacity="0.4"/>
  <polygon points="640,160 652,193 687,193 661,212 671,245 640,226 609,245 619,212 593,193 628,193" fill="url(#acc)" filter="url(#glow)"/>
  <text x="70" y="205" fill="#bdeeff" font-family="Space Grotesk, Arial" font-size="64" font-weight="800">LOGO</text>
  <text x="70" y="278" fill="url(#acc)" font-family="Space Grotesk, Arial" font-size="64" font-weight="800">STARTER</text>
  <rect x="70" y="300" width="180" height="4" rx="2" fill="url(#acc)" opacity="0.6"/>
  <text x="70" y="342" fill="#7fc8e8" font-family="IBM Plex Mono, monospace" font-size="19" letter-spacing="3">ENTRY IDENTITY</text>
  <text x="70" y="378" fill="#4d8aa8" font-family="IBM Plex Mono, monospace" font-size="14" letter-spacing="2">TRH LOGO SERVICE</text>
</svg>
